<svg xmlns="http://www.w3.org/2000/svg" xmlns:xlink="http://www.w3.org/1999/xlink" viewBox="0 0 750 461.62"><defs><style>.cls-1{fill:url(#linear-gradient);}.cls-2{fill:url(#linear-gradient-2);}.cls-3{fill:url(#linear-gradient-3);}.cls-4{fill:url(#linear-gradient-4);}.cls-5{fill:url(#linear-gradient-5);}.cls-6{fill:url(#linear-gradient-6);}.cls-7{fill:url(#linear-gradient-7);}.cls-8{fill:url(#linear-gradient-8);}.cls-9{fill:url(#linear-gradient-9);}.cls-10{fill:url(#linear-gradient-10);}.cls-11{fill:url(#linear-gradient-11);}.cls-12{fill:url(#linear-gradient-12);}.cls-13{fill:url(#linear-gradient-13);}.cls-14{fill:url(#linear-gradient-14);}.cls-15{fill:url(#linear-gradient-15);}.cls-16{fill:url(#linear-gradient-16);}.cls-17{fill:url(#linear-gradient-17);}.cls-18,.cls-19,.cls-20{fill:none;stroke-miterlimit:10;}.cls-18{stroke:url(#New_Gradient_Swatch_2);}.cls-19{stroke:url(#New_Gradient_Swatch_2-2);}.cls-20{stroke:url(#New_Gradient_Swatch_2-3);}.cls-21{fill:url(#linear-gradient-18);}.cls-22{fill:url(#linear-gradient-19);}.cls-23{fill:url(#linear-gradient-20);}.cls-24{fill:url(#linear-gradient-21);}.cls-25{fill:url(#linear-gradient-22);}.cls-26{fill:url(#linear-gradient-23);}</style><linearGradient id="linear-gradient" x1="334.14" y1="71.23" x2="394.01" y2="71.23" gradientUnits="userSpaceOnUse"><stop offset="0" stop-color="#17171b"/><stop offset="0.51" stop-color="#1d1f28"/><stop offset="1" stop-color="#17171b"/></linearGradient><linearGradient id="linear-gradient-2" x1="303.68" y1="64.13" x2="336.87" y2="64.13" gradientUnits="userSpaceOnUse"><stop offset="0" stop-color="#17171b"/><stop offset="0.07" stop-color="#1c1c21"/><stop offset="0.53" stop-color="#373a44"/><stop offset="0.78" stop-color="#424652"/></linearGradient><linearGradient id="linear-gradient-3" x1="306.8" y1="28.71" x2="394.01" y2="28.71" gradientUnits="userSpaceOnUse"><stop offset="0" stop-color="#17171b"/><stop offset="0.45" stop-color="#333640"/><stop offset="1" stop-color="#17171b"/></linearGradient><linearGradient id="linear-gradient-4" x1="175.21" y1="338.29" x2="439.58" y2="338.29" xlink:href="#linear-gradient-3"/><linearGradient id="linear-gradient-5" x1="175.21" y1="219" x2="372.55" y2="219" xlink:href="#linear-gradient-2"/><linearGradient id="linear-gradient-6" x1="333.28" y1="254.84" x2="470.24" y2="254.84" xlink:href="#linear-gradient"/><linearGradient id="linear-gradient-7" x1="0" y1="242.74" x2="45.17" y2="242.74" xlink:href="#linear-gradient"/><linearGradient id="linear-gradient-8" x1="0" y1="201.05" x2="45.17" y2="201.05" xlink:href="#linear-gradient-2"/><linearGradient id="linear-gradient-9" x1="102.63" y1="345.05" x2="129.55" y2="318.12" xlink:href="#linear-gradient-2"/><linearGradient id="linear-gradient-10" x1="96.03" y1="372.27" x2="129.02" y2="339.28" xlink:href="#linear-gradient"/><linearGradient id="linear-gradient-11" x1="77.13" y1="353.37" x2="106.45" y2="324.05" xlink:href="#linear-gradient-3"/><linearGradient id="linear-gradient-12" x1="720.32" y1="316.37" x2="838.93" y2="197.76" gradientUnits="userSpaceOnUse"><stop offset="0" stop-color="#25262d"/><stop offset="0.52" stop-color="#333640"/><stop offset="1" stop-color="#3d424e"/></linearGradient><linearGradient id="linear-gradient-13" x1="700.51" y1="283.64" x2="733.7" y2="283.64" gradientUnits="userSpaceOnUse"><stop offset="0" stop-color="#32333b"/><stop offset="0.42" stop-color="#494d59"/><stop offset="0.68" stop-color="#535867"/></linearGradient><linearGradient id="linear-gradient-14" x1="703.64" y1="249.08" x2="750" y2="249.08" gradientUnits="userSpaceOnUse"><stop offset="0" stop-color="#2c2d34"/><stop offset="0.62" stop-color="#434752"/><stop offset="1" stop-color="#4d5260"/></linearGradient><linearGradient id="linear-gradient-15" x1="108.66" y1="69.46" x2="206.57" y2="69.46" xlink:href="#linear-gradient-12"/><linearGradient id="linear-gradient-16" x1="47.7" y1="102.36" x2="160.41" y2="102.36" xlink:href="#linear-gradient-14"/><linearGradient id="linear-gradient-17" x1="47.7" y1="34.95" x2="160.37" y2="34.95" xlink:href="#linear-gradient-13"/><linearGradient id="New_Gradient_Swatch_2" x1="171.31" y1="319.67" x2="526.35" y2="319.67" gradientUnits="userSpaceOnUse"><stop offset="0" stop-color="#32333b"/><stop offset="0.31" stop-color="#494d59"/><stop offset="0.5" stop-color="#535867"/><stop offset="1" stop-color="#32333b"/></linearGradient><linearGradient id="New_Gradient_Swatch_2-2" x1="171.29" y1="160.25" x2="436.75" y2="160.25" xlink:href="#New_Gradient_Swatch_2"/><linearGradient id="New_Gradient_Swatch_2-3" x1="382.87" y1="208.17" x2="567.04" y2="208.17" xlink:href="#New_Gradient_Swatch_2"/><linearGradient id="linear-gradient-18" x1="512.33" y1="145.4" x2="554.29" y2="145.4" xlink:href="#linear-gradient-3"/><linearGradient id="linear-gradient-19" x1="504.12" y1="170.73" x2="554.29" y2="170.73" xlink:href="#linear-gradient"/><linearGradient id="linear-gradient-20" x1="496.9" y1="153.31" x2="520.55" y2="153.31" xlink:href="#linear-gradient-2"/><linearGradient id="linear-gradient-21" x1="509.42" y1="479.12" x2="607.33" y2="479.12" gradientTransform="translate(141.27 -175.93) rotate(9.98)" xlink:href="#linear-gradient"/><linearGradient id="linear-gradient-22" x1="448.46" y1="512.03" x2="561.17" y2="512.03" gradientTransform="translate(141.27 -175.93) rotate(9.98)" xlink:href="#linear-gradient-3"/><linearGradient id="linear-gradient-23" x1="448.46" y1="444.62" x2="561.13" y2="444.62" gradientTransform="translate(141.27 -175.93) rotate(9.98)" xlink:href="#linear-gradient-2"/></defs><title>cubes</title><g id="Layer_2" data-name="Layer 2"><g id="OBJECTS"><polygon class="cls-1" points="334.14 107.51 389 90.16 394.01 34.95 336.87 49.16 334.14 107.51"/><polygon class="cls-2" points="306.8 20.74 336.87 49.16 334.14 107.51 303.68 76.69 306.8 20.74"/><polygon class="cls-3" points="394.01 34.95 360.57 8.26 306.8 20.74 336.87 49.16 394.01 34.95"/><polygon class="cls-4" points="175.21 307.36 287.14 432.05 439.58 379.03 333.28 244.53 175.21 307.36"/><polygon class="cls-5" points="372.55 130.64 333.28 244.53 175.21 307.36 220.37 189.55 372.55 130.64"/><polygon class="cls-6" points="439.58 379.03 470.24 258.27 372.55 130.64 333.28 244.53 439.58 379.03"/><polygon class="cls-7" points="45.17 208.79 40.16 263.99 0 276.7 0 220.02 45.17 208.79"/><polygon class="cls-8" points="45.17 208.79 0 220.02 0 184.81 11.73 182.09 45.17 208.79"/><polygon class="cls-9" points="137.85 348.11 127.81 316.39 95.89 313.49 104.11 346.53 137.85 348.11"/><polygon class="cls-10" points="87.68 363.92 104.11 346.53 137.85 348.11 120.03 365.73 87.68 363.92"/><polygon class="cls-11" points="95.89 313.49 80.46 332.83 87.68 363.92 104.11 346.53 95.89 313.49"/><polygon class="cls-12" points="750 264.62 750 321.01 730.98 327.03 733.7 268.67 750 264.62"/><polygon class="cls-13" points="703.64 240.25 733.71 268.67 730.98 327.02 700.51 296.21 703.64 240.25"/><polygon class="cls-14" points="750 229.49 750 264.62 733.7 268.67 703.64 240.26 750 229.49"/><polygon class="cls-15" points="160.41 138.92 206.57 67.58 160.37 0 108.66 69.9 160.41 138.92"/><polygon class="cls-16" points="47.7 65.81 108.66 69.9 160.41 138.92 96.74 132.47 47.7 65.81"/><polygon class="cls-17" points="160.37 0 97.19 1.04 47.7 65.81 108.66 69.9 160.37 0"/><polygon class="cls-18" points="172.16 278.34 321.76 445 525.52 374.13 383.44 194.36 172.16 278.34"/><polygon class="cls-19" points="435.93 42.14 383.44 194.36 172.16 278.34 232.53 120.87 435.93 42.14"/><polygon class="cls-20" points="525.52 374.13 566.5 212.73 435.93 42.14 383.44 194.36 525.52 374.13"/><polygon class="cls-21" points="554.29 162.71 544.25 130.99 512.33 128.09 520.55 161.13 554.29 162.71"/><polygon class="cls-22" points="504.12 178.52 520.55 161.13 554.29 162.71 536.47 180.33 504.12 178.52"/><polygon class="cls-23" points="512.33 128.09 496.9 147.43 504.12 178.52 520.55 161.13 512.33 128.09"/><polygon class="cls-24" points="598.9 461.62 656.73 399.35 622.93 324.79 559.89 384.68 598.9 461.62"/><polygon class="cls-25" points="500.56 370.08 559.89 384.68 598.9 461.62 537.32 444.23 500.56 370.08"/><polygon class="cls-26" points="622.93 324.79 560.53 314.87 500.56 370.08 559.89 384.68 622.93 324.79"/></g></g></svg>