<svg xmlns="http://www.w3.org/2000/svg" xmlns:xlink="http://www.w3.org/1999/xlink" width="478.928" height="525.021" viewBox="0 0 478.928 525.021">
  <defs>
    <linearGradient id="linear-gradient" x1="0.5" x2="0.5" y2="1" gradientUnits="objectBoundingBox">
      <stop offset="0" stop-color="#fff"/>
      <stop offset="1" stop-color="#fff" stop-opacity="0.749"/>
    </linearGradient>
    <filter id="icon-pinterest" x="0" y="0" width="478.928" height="525.021" filterUnits="userSpaceOnUse">
      <feOffset dy="6" input="SourceAlpha"/>
      <feGaussianBlur stdDeviation="6" result="blur"/>
      <feFlood flood-opacity="0.302"/>
      <feComposite operator="in" in2="blur"/>
      <feComposite in="SourceGraphic"/>
    </filter>
  </defs>
  <g id="icon-discord" transform="translate(-5986.536 592.51)">
    <g transform="matrix(1, 0, 0, 1, 5986.54, -592.51)" filter="url(#icon-pinterest)">
      <path id="icon-pinterest-2" data-name="icon-pinterest" d="M1024.022,1045.054l-148.964,86a72.5,72.5,0,0,0-36.249,62.789v172.006a72.5,72.5,0,0,0,36.249,62.789l148.964,86a72.5,72.5,0,0,0,72.5,0l148.962-86a72.5,72.5,0,0,0,36.252-62.789V1193.847a72.5,72.5,0,0,0-36.252-62.789l-148.962-86A72.5,72.5,0,0,0,1024.022,1045.054Z" transform="translate(-820.81 -1023.34)" fill="url(#linear-gradient)"/>
    </g>
    <path id="Icon_simple-discord" data-name="Icon simple-discord" d="M162.026,33.536h-.447l-3.01,2.981c30.895,8.942,45.843,22.906,45.843,22.906-19.911-9.955-37.854-14.933-55.8-16.945-12.966-2.012-25.932-.954-36.886,0h-2.981c-7,0-21.908,2.981-41.878,10.954-6.96,3.025-10.954,5.007-10.954,5.007s14.933-14.933,47.84-22.906l-2.012-2.012s-24.918-.954-51.819,18.927c0,0-26.9,46.856-26.9,104.621,0,0,14.9,25.932,55.783,26.915,0,0,5.961-7.943,12-14.933-22.951-6.975-31.893-20.924-31.893-20.924a49.425,49.425,0,0,1,4.993,2.981H64.8a1.187,1.187,0,0,1,.894.447v.089a1.141,1.141,0,0,0,.894.447c4.918,2.027,9.836,4.024,13.86,5.961a121.92,121.92,0,0,0,26.826,7.988,153.074,153.074,0,0,0,47.84,0c8.942-2.012,17.884-3.979,26.826-7.973,5.812-2.981,12.966-5.961,20.82-10.984,0,0-8.942,13.949-32.862,20.924,4.918,6.945,11.848,14.9,11.848,14.9,40.895-.894,56.782-26.826,57.676-25.723,0-57.676-27.05-104.621-27.05-104.621C188,34.474,165.2,33.789,161.177,33.789l.835-.3Zm2.5,65.768c10.477,0,18.927,8.942,18.927,19.9,0,11.028-8.495,19.97-18.927,19.97S145.6,130.228,145.6,119.289c.03-11.028,8.54-19.941,18.927-19.941Zm-67.706,0c10.432,0,18.868,8.942,18.868,19.9,0,11.028-8.495,19.97-18.927,19.97s-18.927-8.942-18.927-19.881c0-11.028,8.495-19.941,18.927-19.941Z" transform="translate(6094.779 -444.738)" fill="#00318a"/>
  </g>
</svg>
