<svg xmlns="http://www.w3.org/2000/svg" xmlns:xlink="http://www.w3.org/1999/xlink" viewBox="0 0 110 109.6"><defs><style>.cls-1{fill:url(#linear-gradient);}.cls-2,.cls-8{fill:#fff;}.cls-2{opacity:0.5;isolation:isolate;}.cls-3{fill:url(#linear-gradient-2);}.cls-4{fill:url(#linear-gradient-3);}.cls-5{fill:#57b3b5;}.cls-6{fill:#de5659;}.cls-7{fill:#d7db79;}</style><linearGradient id="linear-gradient" x1="73.35" y1="805.3" x2="73.35" y2="732" gradientTransform="translate(0 -732)" gradientUnits="userSpaceOnUse"><stop offset="0" stop-color="#1a171b"/><stop offset="0.02" stop-color="#1b2327"/><stop offset="0.1" stop-color="#1f484c"/><stop offset="0.19" stop-color="#23686c"/><stop offset="0.28" stop-color="#258386"/><stop offset="0.39" stop-color="#27979a"/><stop offset="0.5" stop-color="#29a5a8"/><stop offset="0.64" stop-color="#2aadb1"/><stop offset="0.88" stop-color="#2ab0b3"/></linearGradient><linearGradient id="linear-gradient-2" y1="750.1" x2="36.66" y2="750.1" gradientTransform="translate(0 -732)" gradientUnits="userSpaceOnUse"><stop offset="0.1" stop-color="#f55"/><stop offset="0.4" stop-color="#fd5454"/><stop offset="0.53" stop-color="#f65353"/><stop offset="0.62" stop-color="#e94f50"/><stop offset="0.7" stop-color="#d84a4b"/><stop offset="0.76" stop-color="#c14445"/><stop offset="0.83" stop-color="#a43c3e"/><stop offset="0.88" stop-color="#823335"/><stop offset="0.93" stop-color="#5b292b"/><stop offset="0.98" stop-color="#301d21"/><stop offset="1" stop-color="#1a171b"/></linearGradient><linearGradient id="linear-gradient-3" x1="91.6" y1="805.36" x2="91.6" y2="841.56" gradientTransform="translate(0 -732)" gradientUnits="userSpaceOnUse"><stop offset="0" stop-color="#1a171b"/><stop offset="0" stop-color="#1d1b1d"/><stop offset="0.05" stop-color="#444431"/><stop offset="0.1" stop-color="#666843"/><stop offset="0.15" stop-color="#848854"/><stop offset="0.22" stop-color="#9da461"/><stop offset="0.29" stop-color="#b2ba6c"/><stop offset="0.37" stop-color="#c2cb75"/><stop offset="0.47" stop-color="#cdd67b"/><stop offset="0.61" stop-color="#d3dd7e"/><stop offset="1" stop-color="#d5df7f"/></linearGradient></defs><title>logo</title><g id="Layer_2" data-name="Layer 2"><g id="Layer_1-2" data-name="Layer 1"><g id="Layer_2-2" data-name="Layer 2"><g id="Livello_1" data-name="Livello 1"><rect class="cls-1" x="36.7" width="73.3" height="73.3"/><rect class="cls-2" x="36.7" y="36.2" width="36.6" height="37.1"/><polygon class="cls-3" points="0 36.2 36.7 36.2 36.7 0 0 36.2"/><polygon class="cls-4" points="109.9 73.4 73.3 73.4 73.3 109.6 109.9 73.4"/><path class="cls-5" d="M40.8,99.2V85.5a1.37,1.37,0,0,1,.4-1.1,2.32,2.32,0,0,1,1.6-.3,3.23,3.23,0,0,1,1.7.3,1.61,1.61,0,0,1,.5,1.1v4H43.3V86c0-.2-.1-.3-.4-.3a.35.35,0,0,0-.4.4V98.6l.4.5.4-.5V93.9H45v5.4a1.17,1.17,0,0,1-.5,1.1,2.82,2.82,0,0,1-1.5.4,2.77,2.77,0,0,1-.9-.1,1.51,1.51,0,0,1-1.3-1.5Z"/><path class="cls-6" d="M47,99.2v-15h1.7V98.5c0,.1,0,.3.1.3a.28.28,0,0,0,.5,0h0a.37.37,0,0,0,.1-.3V84.2h1.7v15a1.46,1.46,0,0,1-.5,1.2,3.29,3.29,0,0,1-1.7.4,2.93,2.93,0,0,1-1.6-.4A1.56,1.56,0,0,1,47,99.2Z"/><path class="cls-7" d="M53.2,100.5V84.2h3a1.13,1.13,0,0,1,1.3.9v5.7a1.64,1.64,0,0,1-.2,1,2.66,2.66,0,0,1-1,.6l-.4.1h.3a2.22,2.22,0,0,1,1.1.5,1.61,1.61,0,0,1,.3.9v5.5a1.4,1.4,0,0,1-.3.9,1.78,1.78,0,0,1-1,.4l-3.1-.2Zm2.5-9.6V86.5a.73.73,0,0,0-.2-.6.76.76,0,0,0-.4-.2h-.2v5.8h.3C55.5,91.6,55.7,91.4,55.7,90.9Zm0,7.4V93.5c0-.3-.2-.4-.5-.4h-.3v6h.3C55.5,99.1,55.7,98.8,55.7,98.3Z"/><path class="cls-8" d="M59.4,100.5V84.2H63v1.5H61.1v5.4h1.8v1.5H61.1v6.5H63v1.5H59.4Z"/><path class="cls-8" d="M18,100.4V86.2c0-.1-.1-.3-.1-.4a.37.37,0,0,0-.3-.1c-.1,0-.2.1-.3.2a.1.1,0,0,1-.1.1v14.4h-2V86.1a.4.4,0,1,0-.8,0v14.2h-2V85.6c0-1,.4-1.6,1.3-1.6a2.2,2.2,0,0,1,.8.1,1.79,1.79,0,0,1,.7.5,1.43,1.43,0,0,1,1.2-.6h.3a1.49,1.49,0,0,1,.6.1,1.39,1.39,0,0,1,.8.7v-.5H20v16H18Z"/><path class="cls-8" d="M22.2,98.9V85.7a1.43,1.43,0,0,1,.6-1.2,3.13,3.13,0,0,1,1.9-.4,3.29,3.29,0,0,1,1.7.4,1.43,1.43,0,0,1,.6,1.2v6.8H24.2v6.1c0,.3.1.4.5.4s.4-.2.4-.4V93.7h2V99a1.43,1.43,0,0,1-.6,1.2,2.69,2.69,0,0,1-1.8.4,4.33,4.33,0,0,1-1.9-.4A1.61,1.61,0,0,1,22.2,98.9ZM25,86.4c0-.2-.1-.3-.3-.4h0a.35.35,0,0,0-.4.4v4.3H25Z"/><path class="cls-8" d="M28.7,86.1V84.3h.6v-2h2v2h.9v1.8h-.9V97.8c0,.5.2.7.5.7h.4v1.8H31a2.77,2.77,0,0,1-1.3-.3,1.16,1.16,0,0,1-.4-1V86Z"/><path class="cls-8" d="M33.9,99V91.8a1.69,1.69,0,0,1,.3-1l.1-.1.1-.1,2-1.4.2-.1c0-.1.1-.1.1-.2V86.2c0-.3-.2-.4-.5-.4s-.4.1-.4.3v2.7h-2v-3a1.5,1.5,0,0,1,.4-1.1,1.78,1.78,0,0,1,1-.4,4.1,4.1,0,0,1,1.1-.1h.6a3,3,0,0,1,1.5.5,1.5,1.5,0,0,1,.4,1.1v14.7H36.9v-.6a5.55,5.55,0,0,1-.8.6,2.92,2.92,0,0,1-.9.2,1.2,1.2,0,0,1-1.3-1h0Zm2.8-.5V91.3a1.6,1.6,0,0,0-.8,1.4v5.7c0,.2.1.3.4.4S36.6,98.8,36.7,98.5Z"/></g></g></g></g></svg>