<svg xmlns="http://www.w3.org/2000/svg" xmlns:xlink="http://www.w3.org/1999/xlink" viewBox="0 0 109.99 109.56"><defs><style>.cls-1{fill:url(#Sfumatura_senza_nome_16);}.cls-2,.cls-8{fill:#fff;}.cls-2{opacity:0.5;}.cls-3{fill:url(#Sfumatura_senza_nome_204);}.cls-4{fill:url(#Sfumatura_senza_nome_41);}.cls-5{fill:#57b3b5;}.cls-6{fill:#de5659;}.cls-7{fill:#d7db79;}</style><linearGradient id="Sfumatura_senza_nome_16" x1="73.32" y1="73.34" x2="73.32" gradientUnits="userSpaceOnUse"><stop offset="0" stop-color="#1a171b"/><stop offset="0.02" stop-color="#1b2327"/><stop offset="0.1" stop-color="#1f484c"/><stop offset="0.19" stop-color="#23686c"/><stop offset="0.28" stop-color="#258386"/><stop offset="0.39" stop-color="#27979a"/><stop offset="0.5" stop-color="#29a5a8"/><stop offset="0.64" stop-color="#2aadb1"/><stop offset="0.88" stop-color="#2ab0b3"/></linearGradient><linearGradient id="Sfumatura_senza_nome_204" y1="18.1" x2="36.66" y2="18.1" gradientUnits="userSpaceOnUse"><stop offset="0.1" stop-color="#f55"/><stop offset="0.4" stop-color="#fd5454"/><stop offset="0.53" stop-color="#f65353"/><stop offset="0.62" stop-color="#e94f50"/><stop offset="0.7" stop-color="#d84a4b"/><stop offset="0.76" stop-color="#c14445"/><stop offset="0.83" stop-color="#a43c3e"/><stop offset="0.88" stop-color="#823335"/><stop offset="0.93" stop-color="#5b292b"/><stop offset="0.98" stop-color="#301d21"/><stop offset="1" stop-color="#1a171b"/></linearGradient><linearGradient id="Sfumatura_senza_nome_41" x1="91.58" y1="73.35" x2="91.58" y2="109.56" gradientUnits="userSpaceOnUse"><stop offset="0" stop-color="#1a171b"/><stop offset="0" stop-color="#1d1b1d"/><stop offset="0.05" stop-color="#444431"/><stop offset="0.1" stop-color="#666843"/><stop offset="0.15" stop-color="#848854"/><stop offset="0.22" stop-color="#9da461"/><stop offset="0.29" stop-color="#b2ba6c"/><stop offset="0.37" stop-color="#c2cb75"/><stop offset="0.47" stop-color="#cdd67b"/><stop offset="0.61" stop-color="#d3dd7e"/><stop offset="1" stop-color="#d5df7f"/></linearGradient></defs><title>Asset 2</title><g id="Layer_2" data-name="Layer 2"><g id="Livello_1" data-name="Livello 1"><rect class="cls-1" x="36.65" width="73.34" height="73.34"/><rect class="cls-2" x="36.65" y="36.24" width="36.6" height="37.12"/><polygon class="cls-3" points="0 36.21 36.66 36.21 36.66 0 0 36.21"/><polygon class="cls-4" points="109.92 73.36 73.25 73.36 73.25 109.56 109.92 73.36"/><path class="cls-5" d="M32.35,97.87V84.19a1.32,1.32,0,0,1,.44-1.14,2.89,2.89,0,0,1,1.64-.33,3,3,0,0,1,1.68.34,1.31,1.31,0,0,1,.47,1.13v4h-1.7V84.69c0-.23-.12-.34-.37-.34a.4.4,0,0,0-.32.09.42.42,0,0,0-.12.32V97.22l.4.49.41-.49V92.48h1.7v5.39A1.35,1.35,0,0,1,36.11,99a2.48,2.48,0,0,1-1.52.38,6.59,6.59,0,0,1-.93-.07A1.34,1.34,0,0,1,32.35,97.87Z"/><path class="cls-6" d="M38.53,97.87v-15h1.72V97.22a.55.55,0,0,0,.12.35.37.37,0,0,0,.57,0,.51.51,0,0,0,.13-.34V82.85h1.69v15A1.27,1.27,0,0,1,42.27,99a3,3,0,0,1-1.68.36A2.76,2.76,0,0,1,39,99,1.31,1.31,0,0,1,38.53,97.87Z"/><path class="cls-7" d="M44.71,99.19V82.85h2.95A1.14,1.14,0,0,1,49,84.13v5.25a1.51,1.51,0,0,1-.24,1,2.44,2.44,0,0,1-1.05.56l-.39.07.32,0a2.63,2.63,0,0,1,1.1.46,1.29,1.29,0,0,1,.26.9v5.49a1.24,1.24,0,0,1-.3.93,1.68,1.68,0,0,1-1,.39H44.71Zm2.54-9.68V85.1a.82.82,0,0,0-.16-.55.55.55,0,0,0-.43-.18h-.23v5.85h.3C47.08,90.22,47.25,90,47.25,89.51Zm0,7.39V92.09c0-.27-.16-.4-.48-.4h-.34v6h.3C47.08,97.71,47.25,97.44,47.25,96.9Z"/><path class="cls-8" d="M50.9,99.19V82.85h3.58v1.48H52.62v5.39h1.79v1.47H52.62v6.52h1.86v1.48Z"/><path class="cls-8" d="M9.57,99V84.84a.66.66,0,0,0-.14-.36.6.6,0,0,0-.25-.11.4.4,0,0,0-.31.17s0,.06-.08.13a.55.55,0,0,0,0,.17V99h-2V84.79a.43.43,0,0,0-.11-.31.41.41,0,0,0-.28-.11.35.35,0,0,0-.28.11.43.43,0,0,0-.14.31V99H4V84.26Q4,82.7,5.27,82.7a3.1,3.1,0,0,1,.81.1,1.11,1.11,0,0,1,.68.51A1.43,1.43,0,0,1,8,82.7l.34,0c.14,0,.35,0,.62.11a1.33,1.33,0,0,1,.8.72V83h1.81V99Z"/><path class="cls-8" d="M13.74,97.58V84.34a1.36,1.36,0,0,1,.61-1.17,3.41,3.41,0,0,1,1.9-.42,2.85,2.85,0,0,1,1.72.44,1.34,1.34,0,0,1,.59,1.15V91.1H15.74v6.09c0,.28.15.4.45.37s.36-.16.36-.37V92.3l2,0v5.25A1.36,1.36,0,0,1,18,98.75a3,3,0,0,1-1.75.42,3.24,3.24,0,0,1-1.85-.43A1.34,1.34,0,0,1,13.74,97.58ZM16.55,85a.33.33,0,0,0-.33-.36.45.45,0,0,0-.34.08.38.38,0,0,0-.14.31v4.25h.81Z"/><path class="cls-8" d="M20.22,84.76V83h.62V81h2v2h.89v1.81h-.89V96.47c0,.47.16.7.47.7h.42V99H22.55a2.38,2.38,0,0,1-1.33-.27,1.1,1.1,0,0,1-.38-1v-13Z"/><path class="cls-8" d="M25.4,97.61V90.38a1.35,1.35,0,0,1,.33-1l.06-.05.11-.08,2-1.45.22-.14a.68.68,0,0,0,.11-.22V84.73q0-.42-.45-.36t-.36.3v2.7h-2v-3a1.4,1.4,0,0,1,.36-1.06,1.85,1.85,0,0,1,1-.43,7.6,7.6,0,0,1,1.1-.1,4,4,0,0,1,.56,0,3.09,3.09,0,0,1,1.47.48,1.35,1.35,0,0,1,.36,1.08V99H28.4v-.56a2.79,2.79,0,0,1-.79.56,2.15,2.15,0,0,1-.91.19,1.15,1.15,0,0,1-1.3-1Zm2.81-.44V90a1.46,1.46,0,0,0-.81,1.4v5.7q0,.3.36.36T28.21,97.17Z"/><path class="cls-8" d="M4.44,107.14a1,1,0,0,1-.31-.78v-1.6a1,1,0,0,1,.32-.78,1.12,1.12,0,0,1,.83-.31,1.31,1.31,0,0,1,.61.14,1,1,0,0,1,.41.35.85.85,0,0,1,.15.48v0s0,.07-.08.07H6.11c-.05,0-.08,0-.08-.07v0a.6.6,0,0,0-.21-.46.81.81,0,0,0-.54-.19.68.68,0,0,0-.53.22.74.74,0,0,0-.21.55v1.56a.75.75,0,0,0,.21.55.71.71,0,0,0,.53.21.76.76,0,0,0,.54-.19.6.6,0,0,0,.21-.45v0s0-.07.08-.07h.26s.08,0,.08.07v.06a.85.85,0,0,1-.15.48.89.89,0,0,1-.41.35,1.31,1.31,0,0,1-.61.13A1.17,1.17,0,0,1,4.44,107.14Z"/><path class="cls-8" d="M11.19,103.77s.05,0,0,.1l-.06.24s-.05.06-.1,0a.93.93,0,0,0-.31,0,.64.64,0,0,0-.5.29,1.2,1.2,0,0,0-.2.7v2.21s0,.07-.08.07H9.72c-.05,0-.07,0-.07-.07V103.8s0-.07.07-.07H10s.08,0,.08.07v.45s0,0,0,0,0,0,0,0a.88.88,0,0,1,.3-.4.73.73,0,0,1,.46-.15A.81.81,0,0,1,11.19,103.77Z"/><path class="cls-8" d="M14.13,108.81a.08.08,0,0,1,0,0v-.19a.07.07,0,0,1,.08-.07h0a.64.64,0,0,0,.36-.09.59.59,0,0,0,.22-.31,5.07,5.07,0,0,0,.19-.69,0,0,0,0,0,0,0v0l-1-3.55v0s0-.06.08-.06h.27a.08.08,0,0,1,.09.07l.77,3s0,0,0,0l0,0,.76-3a.08.08,0,0,1,.09-.07h.28a.07.07,0,0,1,.06,0s0,0,0,.06l-1.1,3.93a3.64,3.64,0,0,1-.26.7.73.73,0,0,1-.32.31,1.45,1.45,0,0,1-.52.07h0S14.14,108.83,14.13,108.81Z"/><path class="cls-8" d="M21.5,104a1.11,1.11,0,0,1,.29.79v1.6a1.09,1.09,0,0,1-.29.78,1.06,1.06,0,0,1-.78.3,1.23,1.23,0,0,1-.44-.08.88.88,0,0,1-.34-.26h0s0,0,0,0v1.62a.07.07,0,0,1-.08.08h-.26a.07.07,0,0,1-.08-.08V103.8s0-.07.08-.07h.26c.05,0,.08,0,.08.07V104h0s0,0,0,0a.86.86,0,0,1,.34-.25,1.15,1.15,0,0,1,1.22.21Zm-.33.26a.71.71,0,0,0-.55-.22.69.69,0,0,0-.52.21.75.75,0,0,0-.2.55v1.57a.73.73,0,0,0,.2.55.69.69,0,0,0,.52.21.74.74,0,0,0,.55-.21.75.75,0,0,0,.21-.55v-1.57A.73.73,0,0,0,21.17,104.23Z"/><path class="cls-8" d="M26.28,104h-.62a0,0,0,0,0,0,0v2.34a.71.71,0,0,0,.13.5.53.53,0,0,0,.42.14h.08a.07.07,0,0,1,.08.08v.19s0,.07-.08.07H26.1a1,1,0,0,1-.66-.18.9.9,0,0,1-.22-.71v-2.43a0,0,0,0,0,0,0h-.32c-.05,0-.08,0-.08-.07v-.16s0-.07.08-.07h.32a0,0,0,0,0,0,0v-.81s0-.07.08-.07h.25c.05,0,.08,0,.08.07v.81a0,0,0,0,0,0,0h.62c.06,0,.08,0,.08.07V104C26.36,104,26.34,104,26.28,104Z"/><path class="cls-8" d="M29.7,107.14a1,1,0,0,1-.32-.78v-1.6a1,1,0,0,1,.32-.78,1.13,1.13,0,0,1,.84-.31,1.19,1.19,0,0,1,.85.3,1.05,1.05,0,0,1,.32.79v1.6a1,1,0,0,1-.32.78,1.19,1.19,0,0,1-.85.3A1.17,1.17,0,0,1,29.7,107.14Zm1.38-.25a.72.72,0,0,0,.22-.55v-1.56a.71.71,0,0,0-.22-.55.77.77,0,0,0-1.08,0,.74.74,0,0,0-.21.55v1.56a.75.75,0,0,0,.21.55.8.8,0,0,0,1.08,0Z"/><path class="cls-8" d="M37.34,103.94a1.22,1.22,0,0,1,.29.86v1.46a1.25,1.25,0,0,1-.29.87,1,1,0,0,1-.81.31,1.19,1.19,0,0,1-.37-.06.9.9,0,0,1-.34-.2h0a0,0,0,0,0,0,0v1.47a.09.09,0,0,1,0,.06.09.09,0,0,1-.07,0H35a.07.07,0,0,1-.06,0,.09.09,0,0,1,0-.06v-4.9a.09.09,0,0,1,0-.07l.06,0h.72l.07,0a.09.09,0,0,1,0,.07v.08s0,0,0,0l0,0a1.17,1.17,0,0,1,1.5.09Zm-.74.54a.48.48,0,0,0-.35-.14.47.47,0,0,0-.35.14.6.6,0,0,0-.12.38v1.34a.58.58,0,0,0,.12.38.47.47,0,0,0,.35.14.48.48,0,0,0,.35-.14.53.53,0,0,0,.13-.38v-1.34A.55.55,0,0,0,36.6,104.48Z"/><path class="cls-8" d="M43,104a1.12,1.12,0,0,1,.39.88v2.47a.09.09,0,0,1,0,.06.08.08,0,0,1-.07,0h-.72s-.05,0-.06,0a.09.09,0,0,1,0-.06v-.14l0,0s0,0,0,0a1.06,1.06,0,0,1-.8.29,1.4,1.4,0,0,1-.78-.23,1,1,0,0,1-.34-.86,1,1,0,0,1,.41-.93,2,2,0,0,1,1.11-.28h.41s0,0,0,0v-.19a.64.64,0,0,0-.14-.42.47.47,0,0,0-.35-.15.45.45,0,0,0-.28.09.49.49,0,0,0-.13.27.09.09,0,0,1-.1.09h-.76a.08.08,0,0,1-.09-.09,1.09,1.09,0,0,1,.42-.79,1.67,1.67,0,0,1,2,0Zm-.7,2.66a.46.46,0,0,0,.18-.39v-.41a0,0,0,0,0,0,0H42a.67.67,0,0,0-.43.14.47.47,0,0,0-.16.39.42.42,0,0,0,.12.33.45.45,0,0,0,.32.12A.68.68,0,0,0,42.29,106.61Z"/><path class="cls-8" d="M46.61,107.15a.89.89,0,0,1-.37-.74v0a.09.09,0,0,1,0-.07l.07,0H47l.07,0a.09.09,0,0,1,0,.07v0a.34.34,0,0,0,.14.29.54.54,0,0,0,.36.12.48.48,0,0,0,.32-.11.39.39,0,0,0,.11-.28.33.33,0,0,0-.1-.24.78.78,0,0,0-.22-.15l-.42-.17a2.2,2.2,0,0,1-.73-.4.93.93,0,0,1-.29-.73,1,1,0,0,1,.35-.8,1.44,1.44,0,0,1,.94-.28,1.46,1.46,0,0,1,1,.3,1,1,0,0,1,.36.81.09.09,0,0,1,0,.06l-.07,0h-.66l-.06,0a.09.09,0,0,1,0-.06v0a.37.37,0,0,0-.13-.29.43.43,0,0,0-.32-.11.45.45,0,0,0-.33.12.38.38,0,0,0-.12.28.29.29,0,0,0,.1.23.51.51,0,0,0,.21.15l.39.17a4.27,4.27,0,0,1,.55.24,1.14,1.14,0,0,1,.39.34.9.9,0,0,1,.17.55.92.92,0,0,1-.37.77,1.64,1.64,0,0,1-1,.28A1.59,1.59,0,0,1,46.61,107.15Z"/><path class="cls-8" d="M52,107.15a.88.88,0,0,1-.36-.74v0a.08.08,0,0,1,0-.07l.07,0h.67l.07,0a.09.09,0,0,1,0,.07v0a.34.34,0,0,0,.14.29.54.54,0,0,0,.36.12.48.48,0,0,0,.32-.11.39.39,0,0,0,.11-.28.33.33,0,0,0-.1-.24.78.78,0,0,0-.22-.15l-.42-.17a2.2,2.2,0,0,1-.73-.4.93.93,0,0,1-.29-.73,1,1,0,0,1,.35-.8,1.44,1.44,0,0,1,.94-.28,1.46,1.46,0,0,1,1,.3,1,1,0,0,1,.36.81.09.09,0,0,1,0,.06l-.07,0h-.65l-.07,0a.09.09,0,0,1,0-.06v0a.37.37,0,0,0-.13-.29.43.43,0,0,0-.32-.11.45.45,0,0,0-.33.12.38.38,0,0,0-.12.28.29.29,0,0,0,.1.23.51.51,0,0,0,.21.15l.39.17a4.27,4.27,0,0,1,.55.24,1.14,1.14,0,0,1,.39.34.9.9,0,0,1,.17.55.92.92,0,0,1-.37.77,1.64,1.64,0,0,1-1,.28A1.59,1.59,0,0,1,52,107.15Z"/></g></g></svg>