<svg xmlns="http://www.w3.org/2000/svg" viewBox="0 0 326.75 178.63"><defs><style>.cls-1{fill:#fff;}</style></defs><title>mc-cryptopass</title><g id="Layer_2" data-name="Layer 2"><g id="Livello_1" data-name="Livello 1"><path class="cls-1" d="M183.83,109.32V21c0-3.51.95-6,2.85-7.39s5.43-2.12,10.61-2.12,8.77.73,10.82,2.19,3.07,3.9,3.07,7.32V46.85h-11V24.18c0-1.47-.8-2.2-2.41-2.2a2.49,2.49,0,0,0-2,.59,2.59,2.59,0,0,0-.83,2v80.47l2.64,3.22,2.63-3.22V74.5h11v34.82q0,4.83-3.07,7.24t-9.8,2.42a47.34,47.34,0,0,1-6-.44Q183.82,117.22,183.83,109.32Z"/><path class="cls-1" d="M223.76,109.31v-97h11.12v92.74a3.42,3.42,0,0,0,.81,2.28,2.35,2.35,0,0,0,1.83,1,2.39,2.39,0,0,0,1.82-.88,3.13,3.13,0,0,0,.81-2.2V12.33h11v97q0,5-3.22,7.25t-10.82,2.27q-7.47,0-10.39-2.2T223.76,109.31Z"/><path class="cls-1" d="M263.7,117.81V12.33h19q8.34,0,8.34,8.22V54.49q0,4.41-1.54,6.25t-6.8,3.59l-2.49.45,2,.29c3.61.88,6,1.87,7.1,3s1.68,3,1.68,5.77v35.5c0,2.73-.64,4.73-1.9,6s-3.47,2.1-6.59,2.49H263.7Zm16.39-62.49V26.83a5.27,5.27,0,0,0-1-3.53,3.5,3.5,0,0,0-2.78-1.17h-1.46V59.87h1.9C279,59.87,280.09,58.35,280.09,55.32Zm0,47.75V72c0-1.74-1-2.61-3.08-2.61h-2.19V108.3h1.9C279,108.3,280.09,106.56,280.09,103.07Z"/><path class="cls-1" d="M303.64,117.81V12.33h23.11v9.51h-12V56.65h11.56v9.51H314.76V108.3h12v9.51Z"/><path class="cls-1" d="M36.73,116.44V25.16a4.13,4.13,0,0,0-.91-2.34,3.44,3.44,0,0,0-1.61-.72,2.57,2.57,0,0,0-2,1.08,4.17,4.17,0,0,0-.54.9,3.4,3.4,0,0,0-.18,1.08v91.28H18.57V24.8a2.68,2.68,0,0,0-.72-2,2.4,2.4,0,0,0-1.79-.72,2.11,2.11,0,0,0-1.8.72,2.75,2.75,0,0,0-.9,2v91.64H.42v-95Q.42,11.32,9,11.32a21.77,21.77,0,0,1,5.26.63,7.39,7.39,0,0,1,4.35,3.33,9.32,9.32,0,0,1,8-4,17.44,17.44,0,0,1,2.24.18c.88.12,2.22.36,4,.72s3.5,1.92,5.16,4.67v-4H49.66v103.5Z"/><path class="cls-1" d="M63.67,107.46V21.92a8.62,8.62,0,0,1,4-7.54q4-2.7,12.22-2.7,7.36,0,11.14,2.78a8.75,8.75,0,0,1,3.78,7.43v43.7H76.61v39.34c0,1.81,1,2.59,2.87,2.35,1.56-.24,2.34-1,2.34-2.35V73.31l12.94.19v33.92A8.81,8.81,0,0,1,91,115q-3.77,2.7-11.32,2.7-7.91,0-11.94-2.78A8.63,8.63,0,0,1,63.67,107.46ZM81.82,26.23a2.22,2.22,0,0,0-2.16-2.33,2.67,2.67,0,0,0-2.15.54,2.39,2.39,0,0,0-.9,2v27.5h5.21Z"/><path class="cls-1" d="M105.54,24.62V12.94h3.95V0h12.94V12.94h5.75V24.62h-5.75v75.65c0,3,1,4.49,3.06,4.49h2.69v11.68h-7.62c-4.11,0-7-.56-8.62-1.7s-2.45-3.27-2.45-6.38V24.62Z"/><path class="cls-1" d="M139,107.64V60.92c0-2.76.72-4.85,2.15-6.29l.36-.36.72-.54L155,44.38l1.45-.89a3.71,3.71,0,0,0,.72-1.44V24.44c0-1.8-1-2.57-2.88-2.34q-2.34,0-2.34,2V41.51H139V21.92c0-3.11.77-5.39,2.34-6.83a11.64,11.64,0,0,1,6.19-2.78,44.39,44.39,0,0,1,7.1-.63,27.15,27.15,0,0,1,3.59.18q7.19,1.08,9.53,3.05c1.55,1.32,2.34,3.66,2.34,7v94.52H158.38v-3.59a18.17,18.17,0,0,1-5.13,3.59,13.93,13.93,0,0,1-5.86,1.26q-7.14,0-8.42-6.11Zm18.15-2.88v-46q-5.22,2.7-5.22,9v36.83q0,2,2.34,2.34C156.15,107.16,157.12,106.44,157.12,104.76Z"/><path class="cls-1" d="M2.06,167.61A6.74,6.74,0,0,1,0,162.49V152.11A6.68,6.68,0,0,1,2.09,147a7.57,7.57,0,0,1,5.44-2,8.72,8.72,0,0,1,4,.87,6.73,6.73,0,0,1,2.67,2.31,5.61,5.61,0,0,1,.94,3.14v.28c0,.32-.17.47-.51.47l-1.68.1c-.34,0-.51-.13-.51-.38v-.38A3.86,3.86,0,0,0,11,148.5a5,5,0,0,0-3.51-1.25A4.69,4.69,0,0,0,4,148.64a5,5,0,0,0-1.34,3.62V162.4A4.92,4.92,0,0,0,4,166a4.65,4.65,0,0,0,3.49,1.39A5,5,0,0,0,11,166.1a3.83,3.83,0,0,0,1.37-2.94v-.24c0-.31.17-.47.51-.47H14.6a.56.56,0,0,1,.36.12.36.36,0,0,1,.15.3v.43a5.56,5.56,0,0,1-.94,3.13,6.54,6.54,0,0,1-2.67,2.29,8.85,8.85,0,0,1-4,.85A7.59,7.59,0,0,1,2.06,167.61Z"/><path class="cls-1" d="M46,145.7a.49.49,0,0,1,.26.61l-.41,1.6q-.15.43-.66.24a5.38,5.38,0,0,0-2-.24,4,4,0,0,0-3.31,1.89,7.77,7.77,0,0,0-1.27,4.53v14.39q0,.48-.51.48H36.43q-.51,0-.51-.48V145.89q0-.48.51-.48h1.68q.51,0,.51.48v2.92c0,.09,0,.14.1.14s.12,0,.15-.14a6.32,6.32,0,0,1,2-2.64,4.78,4.78,0,0,1,3-.95A4.64,4.64,0,0,1,46,145.7Z"/><path class="cls-1" d="M65,178.16v-1.23a.64.64,0,0,1,.1-.33.29.29,0,0,1,.21-.14h.25a4.63,4.63,0,0,0,2.37-.59,4,4,0,0,0,1.4-2,39.83,39.83,0,0,0,1.27-4.53.21.21,0,0,0,0-.17.6.6,0,0,1,0-.12l-6.51-23.12,0-.14c0-.25.17-.38.5-.38H66.3a.5.5,0,0,1,.55.43l5,19.63c0,.09.07.14.1.14s.07-.05.11-.14l5-19.63a.52.52,0,0,1,.56-.43l1.83.05a.49.49,0,0,1,.38.14.32.32,0,0,1,0,.38L72.71,171.6A21.08,21.08,0,0,1,71,176.13a4.43,4.43,0,0,1-2,2,8.73,8.73,0,0,1-3.39.52h-.3C65.07,178.63,65,178.47,65,178.16Z"/><path class="cls-1" d="M114.94,157.4l0,5.19a7.42,7.42,0,0,1-2,5,6.45,6.45,0,0,1-4.91,2,7,7,0,0,1-3-.63,5.34,5.34,0,0,1-2.16-1.82c0-.1-.09-.13-.15-.12a.15.15,0,0,0-.11.17V178c0,.32-.17.47-.51.47h-1.67c-.34,0-.51-.15-.51-.47V145.89q0-.48.51-.48h1.67q.51,0,.51.48v1.55a.15.15,0,0,0,.11.17q.09,0,.15-.12a5.34,5.34,0,0,1,2.16-1.82,7,7,0,0,1,3-.63,6.48,6.48,0,0,1,4.91,2,7.51,7.51,0,0,1,2,5.08Zm-4-8.73a4.65,4.65,0,0,0-3.54-1.42,4.42,4.42,0,0,0-3.4,1.42,5.14,5.14,0,0,0-1.33,3.68v9.91a5.14,5.14,0,0,0,1.33,3.68,4.44,4.44,0,0,0,3.4,1.41,4.71,4.71,0,0,0,3.52-1.41,5.08,5.08,0,0,0,1.37-3.68v-9.91A5.11,5.11,0,0,0,110.89,148.67Z"/><path class="cls-1" d="M144.19,147.39h-4.07c-.14,0-.2.07-.2.19v15.2a4.85,4.85,0,0,0,.86,3.28,3.63,3.63,0,0,0,2.75.92H144c.34,0,.51.16.51.47v1.27q0,.48-.51.48h-1a6.51,6.51,0,0,1-4.3-1.23c-1-.82-1.45-2.34-1.45-4.58V147.58a.18.18,0,0,0-.2-.19H135c-.34,0-.51-.15-.51-.47v-1q0-.48.51-.48h2.09c.13,0,.2-.06.2-.19v-5.28c0-.31.17-.47.51-.47h1.63c.34,0,.51.16.51.47v5.28c0,.13.06.19.2.19h4.07q.51,0,.51.48v1C144.7,147.24,144.53,147.39,144.19,147.39Z"/><path class="cls-1" d="M166.42,167.61a6.62,6.62,0,0,1-2.08-5.07V152.11a6.71,6.71,0,0,1,2.08-5.09,7.59,7.59,0,0,1,5.45-2,7.79,7.79,0,0,1,5.54,2,6.72,6.72,0,0,1,2.09,5.12v10.43a6.63,6.63,0,0,1-2.09,5.07,7.75,7.75,0,0,1-5.54,2A7.62,7.62,0,0,1,166.42,167.61Zm9-1.65a4.82,4.82,0,0,0,1.37-3.56V152.26a4.92,4.92,0,0,0-1.37-3.62,4.81,4.81,0,0,0-3.56-1.39,4.67,4.67,0,0,0-3.49,1.39,5,5,0,0,0-1.34,3.62V162.4a4.87,4.87,0,0,0,1.34,3.56,4.63,4.63,0,0,0,3.49,1.39A4.78,4.78,0,0,0,175.43,166Z"/><path class="cls-1" d="M216.08,146.78a8.54,8.54,0,0,1,1.94,5.57V162a8.33,8.33,0,0,1-2,5.56,6.58,6.58,0,0,1-5.12,2,6.29,6.29,0,0,1-4.68-1.79.21.21,0,0,0-.2-.07c-.07,0-.1.07-.1.16v9.68a.53.53,0,0,1-.18.4.6.6,0,0,1-.43.16h-4.68a.63.63,0,0,1-.44-.16.52.52,0,0,1-.17-.4v-31.9a.51.51,0,0,1,.17-.4.64.64,0,0,1,.44-.17h4.68a.61.61,0,0,1,.43.17.52.52,0,0,1,.18.4v.75q0,.15.12.15a.41.41,0,0,0,.28-.15,5.47,5.47,0,0,1,2.14-1.29,7.74,7.74,0,0,1,2.44-.4A6.5,6.5,0,0,1,216.08,146.78Zm-4.78,3.61a2.88,2.88,0,0,0-2.24-1,2.92,2.92,0,0,0-2.24,1,3.58,3.58,0,0,0-.86,2.5v8.54a3.58,3.58,0,0,0,.86,2.5,3.14,3.14,0,0,0,4.48,0,3.53,3.53,0,0,0,.86-2.5v-8.54A3.57,3.57,0,0,0,211.3,150.39Z"/><path class="cls-1" d="M252.82,146.88a7.2,7.2,0,0,1,2.49,5.71v16a.52.52,0,0,1-.18.4.61.61,0,0,1-.43.17H250a.6.6,0,0,1-.43-.17.52.52,0,0,1-.18-.4v-.85a.2.2,0,0,0-.1-.19c-.07,0-.14,0-.21.1a6.85,6.85,0,0,1-5.14,1.88,8.78,8.78,0,0,1-5.11-1.53c-1.47-1-2.21-2.89-2.21-5.59s.89-4.85,2.67-6a12.82,12.82,0,0,1,7.25-1.8h2.59c.17,0,.26-.07.26-.23v-1.23a3.9,3.9,0,0,0-.92-2.71,2.94,2.94,0,0,0-2.29-1,2.61,2.61,0,0,0-1.78.64,2.76,2.76,0,0,0-.86,1.72.58.58,0,0,1-.66.57H238c-.41,0-.59-.19-.56-.57a7,7,0,0,1,2.72-5.14,9.73,9.73,0,0,1,6.18-1.93A9.58,9.58,0,0,1,252.82,146.88Zm-4.56,17.27a3,3,0,0,0,1.15-2.5V159c0-.16-.09-.24-.26-.24h-2.59a4.29,4.29,0,0,0-2.83.87,3.14,3.14,0,0,0-1,2.53,2.78,2.78,0,0,0,.82,2.19,3,3,0,0,0,2.08.73A4.23,4.23,0,0,0,248.26,164.15Z"/><path class="cls-1" d="M276.42,167.69a5.78,5.78,0,0,1-2.39-4.86v-.34a.53.53,0,0,1,.18-.4.6.6,0,0,1,.43-.16H279c.41,0,.61.12.61.38v.42a2.31,2.31,0,0,0,.94,1.89,3.61,3.61,0,0,0,2.32.75,2.94,2.94,0,0,0,2.08-.7,2.36,2.36,0,0,0,.77-1.8,2.12,2.12,0,0,0-.67-1.58,4.85,4.85,0,0,0-1.42-1c-.51-.22-1.43-.58-2.75-1.08a14.88,14.88,0,0,1-4.76-2.64,6,6,0,0,1-1.85-4.77,6.34,6.34,0,0,1,2.26-5.17,11.05,11.05,0,0,1,12.42.1,6.54,6.54,0,0,1,2.31,5.26.52.52,0,0,1-.18.4.61.61,0,0,1-.43.17H286.4a.78.78,0,0,1-.44-.12.37.37,0,0,1-.17-.31v-.42a2.43,2.43,0,0,0-.84-1.89,3.07,3.07,0,0,0-2.11-.76,2.89,2.89,0,0,0-2.12.78,2.55,2.55,0,0,0-.78,1.87,2.06,2.06,0,0,0,.61,1.51,4.47,4.47,0,0,0,1.37,1c.51.24,1.36.59,2.54,1.06a30.42,30.42,0,0,1,3.59,1.59,7.81,7.81,0,0,1,2.54,2.21,5.73,5.73,0,0,1,1.1,3.57,6,6,0,0,1-2.39,5,10.33,10.33,0,0,1-6.46,1.84A10.51,10.51,0,0,1,276.42,167.69Z"/><path class="cls-1" d="M311.17,167.69a5.78,5.78,0,0,1-2.39-4.86v-.34a.53.53,0,0,1,.18-.4.6.6,0,0,1,.43-.16h4.38c.41,0,.61.12.61.38v.42a2.31,2.31,0,0,0,.94,1.89,3.61,3.61,0,0,0,2.32.75,2.94,2.94,0,0,0,2.08-.7,2.36,2.36,0,0,0,.77-1.8,2.09,2.09,0,0,0-.67-1.58,4.85,4.85,0,0,0-1.42-1c-.51-.22-1.42-.58-2.75-1.08a14.72,14.72,0,0,1-4.75-2.64,6,6,0,0,1-1.86-4.77,6.34,6.34,0,0,1,2.26-5.17,11.05,11.05,0,0,1,12.42.1A6.54,6.54,0,0,1,326,152a.52.52,0,0,1-.18.4.61.61,0,0,1-.43.17h-4.27a.78.78,0,0,1-.44-.12.37.37,0,0,1-.17-.31v-.42a2.43,2.43,0,0,0-.84-1.89,3.07,3.07,0,0,0-2.11-.76,2.89,2.89,0,0,0-2.12.78,2.55,2.55,0,0,0-.78,1.87,2.06,2.06,0,0,0,.61,1.51,4.47,4.47,0,0,0,1.37,1c.51.24,1.36.59,2.54,1.06a30.42,30.42,0,0,1,3.59,1.59,7.71,7.71,0,0,1,2.54,2.21,5.73,5.73,0,0,1,1.1,3.57,6,6,0,0,1-2.39,5,10.33,10.33,0,0,1-6.46,1.84A10.51,10.51,0,0,1,311.17,167.69Z"/></g></g></svg>