<svg xmlns="http://www.w3.org/2000/svg" viewBox="0 0 327.71 166.01"><defs><style>.cls-1{fill:#fff;}</style></defs><title>mc-metaverse</title><g id="Layer_2" data-name="Layer 2"><g id="Livello_1" data-name="Livello 1"><path class="cls-1" d="M24.42,143.59a8.79,8.79,0,0,1,1.68,5.67v15.9c0,.31-.17.47-.51.47H23.91c-.34,0-.51-.16-.51-.47V149.49a6.72,6.72,0,0,0-1.19-4.2A3.83,3.83,0,0,0,19,143.74a4.13,4.13,0,0,0-3.38,1.51,6.27,6.27,0,0,0-1.25,4.15v15.76c0,.31-.17.47-.51.47H12.21c-.34,0-.51-.16-.51-.47V149.49a6.6,6.6,0,0,0-1.22-4.2,3.83,3.83,0,0,0-3.15-1.55,4.22,4.22,0,0,0-3.41,1.51,6.22,6.22,0,0,0-1.27,4.15v15.76c0,.31-.17.47-.51.47H.51c-.34,0-.51-.16-.51-.47V142.32c0-.31.17-.47.51-.47H2.14c.34,0,.51.16.51.47v1.75c0,.09,0,.15.1.16s.12,0,.15-.12a5.87,5.87,0,0,1,2.32-1.93,6.74,6.74,0,0,1,2.92-.66,5.94,5.94,0,0,1,3.36.94,6.06,6.06,0,0,1,2.19,2.69c.06.16.15.13.25-.09a6,6,0,0,1,2.44-2.65,7,7,0,0,1,3.46-.89A5.57,5.57,0,0,1,24.42,143.59Z"/><path class="cls-1" d="M65,154.64H53.32c-.13,0-.2.06-.2.19v4a4.91,4.91,0,0,0,1.35,3.56A4.61,4.61,0,0,0,58,163.79a4.79,4.79,0,0,0,3-1,4.63,4.63,0,0,0,1.68-2.6.57.57,0,0,1,.56-.42l1.63.09a.69.69,0,0,1,.36.1.23.23,0,0,1,.1.28v.19a6.52,6.52,0,0,1-2.44,4.08A7.89,7.89,0,0,1,58,166a7.6,7.6,0,0,1-5.44-2A6.64,6.64,0,0,1,50.42,159V148.55a6.72,6.72,0,0,1,2.09-5.1,7.57,7.57,0,0,1,5.44-2,7.67,7.67,0,0,1,5.5,2,6.72,6.72,0,0,1,2.08,5.1v5.61Q65.53,154.64,65,154.64Zm-10.55-9.56a5,5,0,0,0-1.35,3.61v3.59a.18.18,0,0,0,.2.19h9.31c.14,0,.21-.07.21-.19v-3.59a5,5,0,0,0-1.35-3.61A4.7,4.7,0,0,0,58,143.69,4.61,4.61,0,0,0,54.47,145.08Z"/><path class="cls-1" d="M97.38,143.83H93.31c-.13,0-.2.06-.2.19v15.19a4.82,4.82,0,0,0,.86,3.28,3.61,3.61,0,0,0,2.75.92h.51q.51,0,.51.48v1.27c0,.31-.17.47-.51.47h-1a6.51,6.51,0,0,1-4.3-1.23c-1-.81-1.45-2.34-1.45-4.57V144c0-.13-.07-.19-.2-.19H88.17c-.34,0-.51-.16-.51-.47v-1c0-.31.17-.47.51-.47h2.09c.13,0,.2-.06.2-.19v-5.29c0-.31.17-.47.51-.47H92.6c.34,0,.51.16.51.47v5.29c0,.13.07.19.2.19h4.07c.34,0,.51.16.51.47v1C97.89,143.67,97.72,143.83,97.38,143.83Z"/><path class="cls-1" d="M133.63,143.62a8.15,8.15,0,0,1,2,5.73v15.81c0,.31-.17.47-.51.47H133.4c-.34,0-.5-.16-.5-.47v-1.7c0-.09,0-.15-.08-.16s-.11,0-.18.07q-1.87,2.64-5.9,2.64a7.61,7.61,0,0,1-4.66-1.46c-1.3-1-2-2.69-2-5.15,0-2.61.77-4.53,2.34-5.75a9.79,9.79,0,0,1,6.25-1.84h4c.14,0,.21-.07.21-.19v-2.17a6.51,6.51,0,0,0-1.25-4.2,4.21,4.21,0,0,0-3.49-1.56,4.77,4.77,0,0,0-3.07,1,4,4,0,0,0-1.51,2.69c0,.31-.17.47-.5.47l-1.84-.1a.47.47,0,0,1-.38-.14.33.33,0,0,1-.07-.33,6,6,0,0,1,2.39-4.24,8,8,0,0,1,5-1.61A7,7,0,0,1,133.63,143.62Zm-2.39,18.8a4.75,4.75,0,0,0,1.66-3.87v-4.48c0-.12-.07-.19-.21-.19h-4a6.34,6.34,0,0,0-4.24,1.35,4.89,4.89,0,0,0-1.61,4,4.5,4.5,0,0,0,1.22,3.45,4.57,4.57,0,0,0,3.21,1.13A5.93,5.93,0,0,0,131.24,162.42Z"/><path class="cls-1" d="M164.19,165.21l-6.26-23.08-.05-.19q0-.33.45-.33h4.33c.34,0,.53.14.56.43l3.66,16.8c0,.09.07.14.1.14s.07,0,.11-.14L170.7,142a.51.51,0,0,1,.56-.43l4.32,0a.49.49,0,0,1,.38.14.32.32,0,0,1,0,.38l-6.21,23c0,.28-.22.42-.56.42h-4.47A.51.51,0,0,1,164.19,165.21Z"/><path class="cls-1" d="M213.79,155.49h-11.5c-.13,0-.2.06-.2.18v2.55a3.91,3.91,0,0,0,1,2.79,3.47,3.47,0,0,0,2.64,1.08,3.62,3.62,0,0,0,2.4-.8,3.52,3.52,0,0,0,1.22-2.08.55.55,0,0,1,.56-.37l3.76.18a.46.46,0,0,1,.38.15.33.33,0,0,1,.08.33,6.88,6.88,0,0,1-2.52,4.79,9.23,9.23,0,0,1-5.88,1.72,9.12,9.12,0,0,1-6.23-2,6.86,6.86,0,0,1-2.31-5.43v-9.81a7,7,0,0,1,2.31-5.43,10.46,10.46,0,0,1,12.49,0,7,7,0,0,1,2.29,5.43V155Q214.3,155.49,213.79,155.49Zm-10.68-9.25a3.89,3.89,0,0,0-1,2.78v2.5c0,.13.07.19.2.19h7c.13,0,.2-.06.2-.19V149a3.89,3.89,0,0,0-1-2.78,3.51,3.51,0,0,0-2.7-1.09A3.44,3.44,0,0,0,203.11,146.24Z"/><path class="cls-1" d="M249.31,141.9a.49.49,0,0,1,.25.61l-.76,3.59c0,.28-.24.37-.61.28a4.47,4.47,0,0,0-1.53-.24,5,5,0,0,0-.81.05,3.69,3.69,0,0,0-2.62,1.65,5.93,5.93,0,0,0-1,3.54v13.78c0,.31-.17.47-.51.47h-3.86c-.34,0-.51-.16-.51-.47V142.08c0-.31.17-.47.51-.47h3.86c.34,0,.51.16.51.47v2.74c0,.1,0,.15.08.17s.09,0,.13-.12q1.47-3.5,4.73-3.49A4.33,4.33,0,0,1,249.31,141.9Z"/><path class="cls-1" d="M272.53,164.19a5.59,5.59,0,0,1-2.21-4.65v-.42c0-.31.17-.47.51-.47h3.61c.34,0,.51.12.51.37v.43A2.68,2.68,0,0,0,276,161.6a4,4,0,0,0,2.64.87,3.53,3.53,0,0,0,2.47-.85,2.79,2.79,0,0,0,.94-2.17,2.49,2.49,0,0,0-.66-1.75,4.71,4.71,0,0,0-1.55-1.1c-.6-.27-1.5-.64-2.72-1.11a27.27,27.27,0,0,1-3.29-1.56,7.61,7.61,0,0,1-2.31-2.17,6,6,0,0,1-1-3.59,6.14,6.14,0,0,1,2.16-5,10.43,10.43,0,0,1,11.76.05,6.21,6.21,0,0,1,2.16,5v.14c0,.32-.17.47-.51.47h-3.51a.58.58,0,0,1-.36-.12.36.36,0,0,1-.15-.3V148a2.86,2.86,0,0,0-1-2.17,3.54,3.54,0,0,0-2.5-.9,3.4,3.4,0,0,0-2.49.9,2.93,2.93,0,0,0-.92,2.17,2.37,2.37,0,0,0,.61,1.65,4.55,4.55,0,0,0,1.48,1.06c.58.27,1.49.66,2.75,1.16a31.23,31.23,0,0,1,3.46,1.63,7.78,7.78,0,0,1,2.41,2.19,6.4,6.4,0,0,1-1.22,8.4,11.41,11.41,0,0,1-12.16.07Z"/><path class="cls-1" d="M325.42,155.49h-11.5c-.13,0-.2.06-.2.18v2.55a3.91,3.91,0,0,0,1,2.79,3.45,3.45,0,0,0,2.64,1.08,3.58,3.58,0,0,0,2.39-.8,3.47,3.47,0,0,0,1.22-2.08.56.56,0,0,1,.56-.37l3.77.18a.46.46,0,0,1,.38.15.33.33,0,0,1,.08.33,6.88,6.88,0,0,1-2.52,4.79,9.23,9.23,0,0,1-5.88,1.72,9.12,9.12,0,0,1-6.23-2,6.87,6.87,0,0,1-2.32-5.43v-9.81a7,7,0,0,1,2.32-5.43,10.46,10.46,0,0,1,12.49,0,7,7,0,0,1,2.29,5.43V155Q325.93,155.49,325.42,155.49Zm-10.68-9.25a3.89,3.89,0,0,0-1,2.78v2.5c0,.13.07.19.2.19h7c.14,0,.21-.06.21-.19V149a3.89,3.89,0,0,0-1-2.78,3.51,3.51,0,0,0-2.7-1.09A3.43,3.43,0,0,0,314.74,146.24Z"/><path class="cls-1" d="M184.78,109.32V21c0-3.51.95-6,2.86-7.39s5.43-2.12,10.6-2.12,8.78.73,10.83,2.19,3.07,3.9,3.07,7.32V46.85h-11V24.18c0-1.47-.8-2.2-2.41-2.2a2.49,2.49,0,0,0-2,.59,2.59,2.59,0,0,0-.83,2v80.47l2.64,3.22,2.63-3.22V74.5h11v34.82q0,4.83-3.07,7.24t-9.8,2.42a47.34,47.34,0,0,1-6-.44Q184.78,117.22,184.78,109.32Z"/><path class="cls-1" d="M224.72,109.31v-97h11.12v92.74a3.47,3.47,0,0,0,.8,2.28,2.38,2.38,0,0,0,1.83,1,2.41,2.41,0,0,0,1.83-.88,3.13,3.13,0,0,0,.81-2.2V12.33h11v97q0,5-3.22,7.25T238,118.83q-7.47,0-10.39-2.2T224.72,109.31Z"/><path class="cls-1" d="M264.66,117.81V12.33h19q8.34,0,8.34,8.22V54.49q0,4.41-1.54,6.25t-6.8,3.59l-2.49.45,2.05.29c3.61.88,6,1.87,7.09,3s1.69,3,1.69,5.77v35.5c0,2.73-.64,4.73-1.9,6s-3.47,2.1-6.59,2.49H264.66Zm16.39-62.49V26.83a5.27,5.27,0,0,0-1-3.53,3.5,3.5,0,0,0-2.78-1.17h-1.46V59.87h1.9C279.92,59.87,281.05,58.35,281.05,55.32Zm0,47.75V72c0-1.74-1-2.61-3.08-2.61h-2.19V108.3h1.9C279.92,108.3,281.05,106.56,281.05,103.07Z"/><path class="cls-1" d="M304.6,117.81V12.33h23.11v9.51h-12V56.65h11.55v9.51H315.72V108.3h12v9.51Z"/><path class="cls-1" d="M37.68,116.44V25.16a4.11,4.11,0,0,0-.9-2.34,3.43,3.43,0,0,0-1.62-.72,2.57,2.57,0,0,0-2,1.08,4.17,4.17,0,0,0-.54.9,3.4,3.4,0,0,0-.18,1.08v91.28H19.53V24.8a2.68,2.68,0,0,0-.72-2A2.42,2.42,0,0,0,17,22.1a2.09,2.09,0,0,0-1.8.72,2.75,2.75,0,0,0-.9,2v91.64H1.38v-95q0-10.08,8.53-10.08a21.79,21.79,0,0,1,5.27.63,7.41,7.41,0,0,1,4.35,3.33,9.31,9.31,0,0,1,8-4,17.17,17.17,0,0,1,2.23.18c.89.12,2.23.36,4,.72s3.5,1.92,5.16,4.67v-4H50.62v103.5Z"/><path class="cls-1" d="M64.63,107.46V21.92a8.62,8.62,0,0,1,4-7.54q4-2.7,12.22-2.7,7.36,0,11.14,2.78a8.75,8.75,0,0,1,3.78,7.43v43.7H77.56v39.34c0,1.81,1,2.59,2.88,2.35,1.56-.24,2.34-1,2.34-2.35V73.31l12.94.19v33.92A8.81,8.81,0,0,1,91.94,115q-3.76,2.7-11.32,2.7-7.91,0-12-2.78A8.64,8.64,0,0,1,64.63,107.46ZM82.78,26.23a2.22,2.22,0,0,0-2.16-2.33,2.7,2.7,0,0,0-2.16.54,2.42,2.42,0,0,0-.9,2v27.5h5.22Z"/><path class="cls-1" d="M106.5,24.62V12.94h4V0h12.93V12.94h5.76V24.62h-5.76v75.65c0,3,1,4.49,3.07,4.49h2.69v11.68h-7.62c-4.12,0-7-.56-8.62-1.7s-2.45-3.27-2.45-6.38V24.62Z"/><path class="cls-1" d="M139.93,107.64V60.92c0-2.76.72-4.85,2.15-6.29l.36-.36.72-.54,12.75-9.35,1.45-.89a3.79,3.79,0,0,0,.71-1.44V24.44c0-1.8-1-2.57-2.87-2.34q-2.34,0-2.34,2V41.51H139.93V21.92c0-3.11.77-5.39,2.33-6.83a11.71,11.71,0,0,1,6.2-2.78,44.28,44.28,0,0,1,7.09-.63,27.21,27.21,0,0,1,3.6.18q7.18,1.08,9.53,3.05t2.33,7v94.52H159.33v-3.59a18,18,0,0,1-5.12,3.59,13.93,13.93,0,0,1-5.86,1.26q-7.14,0-8.42-6.11Zm18.14-2.88v-46q-5.2,2.7-5.21,9v36.83q0,2,2.34,2.34C157.11,107.16,158.07,106.44,158.07,104.76Z"/></g></g></svg>