<svg xmlns="http://www.w3.org/2000/svg" viewBox="0 0 326.33 168.63"><defs><style>.cls-1{fill:#fff;}</style></defs><title>mc-nft</title><g id="Layer_2" data-name="Layer 2"><g id="Livello_1" data-name="Livello 1"><path class="cls-1" d="M105.8,168.16V136.07c0-.31.17-.47.51-.47h3.92a.57.57,0,0,1,.56.38l9,20.81c0,.09.09.13.16.12a.16.16,0,0,0,.1-.17V136.07c0-.31.17-.47.51-.47h3.81c.34,0,.51.16.51.47v32.09c0,.31-.17.47-.51.47h-4a.56.56,0,0,1-.56-.38l-9-20.81c0-.09-.09-.14-.16-.14s-.1,0-.1.14l0,20.72c0,.31-.17.47-.51.47h-3.81C106,168.63,105.8,168.47,105.8,168.16Z"/><path class="cls-1" d="M163,139.52h-11.4c-.13,0-.2.06-.2.19V150c0,.12.07.18.2.18h7q.51,0,.51.48v3c0,.31-.17.47-.51.47h-7c-.13,0-.2.06-.2.19v13.92c0,.31-.17.47-.51.47H147c-.34,0-.51-.16-.51-.47V136.07c0-.31.17-.47.51-.47h16c.34,0,.51.16.51.47v3Q163.5,139.52,163,139.52Z"/><path class="cls-1" d="M200.28,136.07v3q0,.48-.51.48h-6.66c-.14,0-.21.06-.21.19v28.45c0,.31-.17.47-.5.47h-3.87c-.34,0-.51-.16-.51-.47V139.71c0-.13-.07-.19-.2-.19h-6.31q-.51,0-.51-.48v-3c0-.31.17-.47.51-.47h18.26C200.11,135.6,200.28,135.76,200.28,136.07Z"/><path class="cls-1" d="M183.4,109.32V21c0-3.51.95-6,2.85-7.39s5.44-2.12,10.61-2.12,8.78.73,10.83,2.19,3.07,3.9,3.07,7.32V46.85h-11V24.18c0-1.47-.81-2.2-2.41-2.2a2.48,2.48,0,0,0-2,.59,2.56,2.56,0,0,0-.83,2v80.47l2.63,3.22,2.64-3.22V74.5h11v34.82c0,3.22-1,5.63-3.07,7.24s-5.32,2.42-9.81,2.42a47.32,47.32,0,0,1-6-.44Q183.4,117.22,183.4,109.32Z"/><path class="cls-1" d="M223.34,109.31v-97h11.12v92.74a3.41,3.41,0,0,0,.8,2.28,2.38,2.38,0,0,0,1.83,1,2.43,2.43,0,0,0,1.83-.88,3.17,3.17,0,0,0,.8-2.2V12.33h11v97c0,3.32-1.08,5.74-3.22,7.25s-5.76,2.27-10.83,2.27-8.44-.73-10.39-2.2S223.34,112.73,223.34,109.31Z"/><path class="cls-1" d="M263.28,117.81V12.33h19q8.34,0,8.34,8.22V54.49q0,4.41-1.53,6.25c-1,1.22-3.29,2.42-6.81,3.59l-2.48.45,2.05.29c3.6.88,6,1.87,7.09,3s1.68,3,1.68,5.77v35.5q0,4.1-1.9,6t-6.58,2.49H263.28Zm16.38-62.49V26.83a5.27,5.27,0,0,0-1-3.53,3.52,3.52,0,0,0-2.78-1.17h-1.47V59.87h1.91Q279.66,59.87,279.66,55.32Zm0,47.75V72c0-1.74-1-2.61-3.07-2.61h-2.2V108.3h1.91Q279.66,108.3,279.66,103.07Z"/><path class="cls-1" d="M303.21,117.81V12.33h23.12v9.51h-12V56.65h11.56v9.51H314.33V108.3h12v9.51Z"/><path class="cls-1" d="M36.3,116.44V25.16a4.11,4.11,0,0,0-.9-2.34,3.47,3.47,0,0,0-1.62-.72,2.59,2.59,0,0,0-2,1.08,4.28,4.28,0,0,0-.53.9,3.4,3.4,0,0,0-.18,1.08v91.28H18.15V24.8a2.68,2.68,0,0,0-.72-2,2.44,2.44,0,0,0-1.8-.72,2.12,2.12,0,0,0-1.8.72,2.74,2.74,0,0,0-.89,2v91.64H0v-95Q0,11.32,8.53,11.32a21.71,21.71,0,0,1,5.26.63,7.43,7.43,0,0,1,4.36,3.33,9.3,9.3,0,0,1,8-4,17.17,17.17,0,0,1,2.23.18c.89.12,2.23.36,4,.72s3.5,1.92,5.16,4.67v-4H49.23v103.5Z"/><path class="cls-1" d="M63.25,107.46V21.92a8.6,8.6,0,0,1,4-7.54q3.94-2.7,12.22-2.7,7.36,0,11.14,2.78a8.74,8.74,0,0,1,3.77,7.43v43.7H76.18v39.34c0,1.81,1,2.59,2.88,2.35,1.55-.24,2.33-1,2.33-2.35V73.31l12.94.19v33.92A8.8,8.8,0,0,1,90.56,115q-3.78,2.7-11.33,2.7c-5.27,0-9.24-.93-11.94-2.78A8.64,8.64,0,0,1,63.25,107.46ZM81.39,26.23a2.21,2.21,0,0,0-2.16-2.33,2.69,2.69,0,0,0-2.15.54,2.39,2.39,0,0,0-.9,2v27.5h5.21Z"/><path class="cls-1" d="M105.11,24.62V12.94h4V0H122V12.94h5.76V24.62H122v75.65c0,3,1,4.49,3.06,4.49h2.7v11.68h-7.62c-4.12,0-7-.56-8.62-1.7s-2.45-3.27-2.45-6.38V24.62Z"/><path class="cls-1" d="M138.54,107.64V60.92c0-2.76.72-4.85,2.16-6.29l.36-.36.71-.54,12.76-9.35,1.44-.89a3.71,3.71,0,0,0,.72-1.44V24.44c0-1.8-1-2.57-2.88-2.34-1.55,0-2.33.66-2.33,2V41.51H138.54V21.92q0-4.67,2.34-6.83a11.71,11.71,0,0,1,6.2-2.78,44.28,44.28,0,0,1,7.09-.63,27.21,27.21,0,0,1,3.6.18q7.18,1.08,9.52,3.05t2.34,7v94.52H158v-3.59a17.89,17.89,0,0,1-5.13,3.59A13.87,13.87,0,0,1,147,117.7q-7.14,0-8.42-6.11Zm18.15-2.88v-46q-5.22,2.7-5.21,9v36.83c0,1.32.78,2.1,2.33,2.34Q156.69,107.28,156.69,104.76Z"/></g></g></svg>