<svg xmlns="http://www.w3.org/2000/svg" viewBox="0 0 147.45 51.11"><defs><style>.cls-1{fill:#d5df7f;}</style></defs><title>title-unique</title><g id="Layer_2" data-name="Layer 2"><g id="Livello_1" data-name="Livello 1"><path d="M.39,35.86V.37H4.46V34.31a1.23,1.23,0,0,0,.3.83.86.86,0,0,0,.67.35.91.91,0,0,0,.67-.32,1.2,1.2,0,0,0,.29-.81V.37h4V35.86a3,3,0,0,1-1.17,2.65,7.16,7.16,0,0,1-4,.83,6.64,6.64,0,0,1-3.8-.8A3.13,3.13,0,0,1,.39,35.86Z"/><path d="M15,39V.37h3.1L21.8,18.84V.37h4.07V39H22.93L19.08,20.13V39Z"/><path d="M30.48,39V.37h4.06V39Z"/><path d="M39.15,35.86V3.48a3.07,3.07,0,0,1,3-3.32A20.23,20.23,0,0,1,44.5,0a5.69,5.69,0,0,1,3.56.88,3.2,3.2,0,0,1,1.1,2.65V30.24a9.05,9.05,0,0,1-.59,3.8,2.61,2.61,0,0,1-1.93,1.45h2.89V39H42.11Q39.16,39,39.15,35.86Zm6-1.55V5.3a1,1,0,0,0-1-1,.84.84,0,0,0-.65.32,1.14,1.14,0,0,0-.26.75v29l.91,1.18Z"/><path d="M53.76,35.86V.37h4.07V34.31a1.27,1.27,0,0,0,.29.83.88.88,0,0,0,.67.35.91.91,0,0,0,.67-.32,1.16,1.16,0,0,0,.3-.81V.37h4V35.86a3,3,0,0,1-1.18,2.65,7.11,7.11,0,0,1-4,.83,6.64,6.64,0,0,1-3.8-.8A3.15,3.15,0,0,1,53.76,35.86Z"/><path d="M68.37,39V.37h8.46V3.85H72.44V16.59h4.23v3.48H72.44V35.49h4.39V39Z"/><rect class="cls-1" y="44.64" width="147.45" height="6.48"/></g></g></svg>