<svg xmlns="http://www.w3.org/2000/svg" viewBox="0 0 147.45 51.06"><defs><style>.cls-1{fill:#2ab0b3;}</style></defs><title>title-selection</title><g id="Layer_2" data-name="Layer 2"><g id="Livello_1" data-name="Livello 1"><path d="M.4,35.81V22.91H4.46V34.47a1,1,0,0,0,.27.64.85.85,0,0,0,.7.32.88.88,0,0,0,.69-.29,1,1,0,0,0,.27-.67V25.21a6.23,6.23,0,0,0-1-2.89L2.18,16.9,1,15l-.32-.69a4,4,0,0,1-.22-1c0-.35,0-.91,0-1.66V3.48A3,3,0,0,1,1.54.83,6.92,6.92,0,0,1,5.45,0,6.6,6.6,0,0,1,9.21.83a3.06,3.06,0,0,1,1.14,2.65V14.4h-4V4.87A1.09,1.09,0,0,0,6.1,4.2a.93.93,0,0,0-.73-.35.85.85,0,0,0-.61.3,1,1,0,0,0-.3.77v6.32a6.43,6.43,0,0,0,.27,2.36l.86,1.28,3.53,5.46a11.34,11.34,0,0,1,1.1,1.79,7.36,7.36,0,0,1,.13,1.8V35.81a3.07,3.07,0,0,1-1.12,2.65,6.76,6.76,0,0,1-3.88.83,6.73,6.73,0,0,1-3.76-.83A3,3,0,0,1,.4,35.81Z"/><path d="M15,38.91V.32h8.46V3.8H19.08V16.54H23.3V20H19.08V35.43h4.39v3.48Z"/><path d="M27.48,38.91V.32h4.07V35.43h2.89v3.48Z"/><path d="M37.7,38.91V.32h8.46V3.8H41.77V16.54H46V20H41.77V35.43h4.39v3.48Z"/><path d="M50.17,35.81V3.48a3.13,3.13,0,0,1,1-2.7A6.86,6.86,0,0,1,55.1,0a7.19,7.19,0,0,1,4,.8,3.07,3.07,0,0,1,1.12,2.68V13h-4V4.66c0-.54-.29-.81-.88-.81a.91.91,0,0,0-.74.22.93.93,0,0,0-.31.75V34.26l1,1.17,1-1.17V23.07h4V35.81a3.16,3.16,0,0,1-1.12,2.65,5.81,5.81,0,0,1-3.59.88,16.59,16.59,0,0,1-2.19-.16Q50.18,38.7,50.17,35.81Z"/><path d="M63.45,3.8V.32h11V3.8H70.94V38.91h-4V3.8Z"/><path d="M77.69,38.91V.32h4.07V38.91Z"/><path d="M86.36,35.81V3.48A3,3,0,0,1,87.51.83,6.87,6.87,0,0,1,91.39,0,6.93,6.93,0,0,1,95.3.8a3.15,3.15,0,0,1,1.07,2.68V35.81a3,3,0,0,1-1.18,2.65,7.14,7.14,0,0,1-4,.83,6.33,6.33,0,0,1-3.72-.86A3,3,0,0,1,86.36,35.81Zm6-1V4.39a1,1,0,0,0-.29-.72.92.92,0,0,0-.67-.3,1.24,1.24,0,0,0-.7.27,1.33,1.33,0,0,0-.26.75V35c0,.65.3.93.91.86S92.35,35.49,92.35,34.85Z"/><path d="M101,38.91V.32h3.11l3.69,18.47V.32h4.07V38.91h-3L105,20.07V38.91Z"/><rect class="cls-1" y="44.58" width="147.45" height="6.48"/></g></g></svg>